<?xml version="1.0" encoding="UTF-8" standalone="no"?>
<!-- Created with Inkscape (http://www.inkscape.org/) -->
<svg
   xmlns:dc="http://purl.org/dc/elements/1.1/"
   xmlns:cc="http://web.resource.org/cc/"
   xmlns:rdf="http://www.w3.org/1999/02/22-rdf-syntax-ns#"
   xmlns:svg="http://www.w3.org/2000/svg"
   xmlns="http://www.w3.org/2000/svg"
   xmlns:sodipodi="http://sodipodi.sourceforge.net/DTD/sodipodi-0.dtd"
   xmlns:inkscape="http://www.inkscape.org/namespaces/inkscape"
   width="64px"
   height="64px"
   id="svg2216"
   sodipodi:version="0.32"
   inkscape:version="0.45"
   sodipodi:docbase="/home/adam/trees/wxdbgp/images"
   sodipodi:docname="step-out.svg"
   inkscape:output_extension="org.inkscape.output.svg.inkscape"
   inkscape:export-filename="/home/adam/trees/wxdbgp/images/step-out.png"
   inkscape:export-xdpi="247.5"
   inkscape:export-ydpi="247.5"
   sodipodi:modified="TRUE">
  <sodipodi:namedview
     id="base"
     pagecolor="#ffffff"
     bordercolor="#666666"
     borderopacity="1.0"
     inkscape:pageopacity="0.0"
     inkscape:pageshadow="2"
     inkscape:zoom="11.8125"
     inkscape:cx="40.888889"
     inkscape:cy="32.344901"
     inkscape:current-layer="layer1"
     showgrid="true"
     inkscape:document-units="px"
     inkscape:grid-bbox="true"
     inkscape:window-width="1280"
     inkscape:window-height="970"
     inkscape:window-x="0"
     inkscape:window-y="0"
     showguides="true"
     inkscape:guide-bbox="true" />
  <defs
     id="defs2218">
    <marker
       style="overflow:visible"
       id="Club"
       orient="auto"
       refY="0.0"
       inkscape:stockid="Club"
       refX="0.0">
      <path
         d="M -1.5971367,-7.0977635 C -3.4863874,-7.0977635 -5.0235187,-5.5606321 -5.0235187,-3.6713813 C -5.0235187,-3.0147015 -4.7851656,-2.4444556 -4.4641095,-1.9232271 C -4.5028609,-1.8911157 -4.5437814,-1.8647646 -4.5806531,-1.8299921 C -5.2030765,-2.6849849 -6.1700514,-3.2751330 -7.3077730,-3.2751330 C -9.1970245,-3.2751331 -10.734155,-1.7380016 -10.734155,0.15124914 C -10.734155,2.0404999 -9.1970245,3.5776313 -7.3077730,3.5776313 C -6.3143268,3.5776313 -5.4391540,3.1355702 -4.8137404,2.4588126 C -4.9384274,2.8137041 -5.0235187,3.1803000 -5.0235187,3.5776313 C -5.0235187,5.4668819 -3.4863874,7.0040135 -1.5971367,7.0040135 C 0.29211394,7.0040135 1.8292454,5.4668819 1.8292454,3.5776313 C 1.8292454,2.7842354 1.5136868,2.0838028 1.0600576,1.5031550 C 2.4152718,1.7663868 3.7718375,2.2973711 4.7661444,3.8340272 C 4.0279463,3.0958289 3.5540908,1.7534117 3.5540908,-0.058529361 L 2.9247554,-0.10514681 L 3.5074733,-0.12845553 C 3.5074733,-1.9403966 3.9580199,-3.2828138 4.6962183,-4.0210121 C 3.7371277,-2.5387813 2.4390549,-1.9946496 1.1299838,-1.7134486 C 1.5341802,-2.2753578 1.8292454,-2.9268556 1.8292454,-3.6713813 C 1.8292454,-5.5606319 0.29211394,-7.0977635 -1.5971367,-7.0977635 z "
         style="fill-rule:evenodd;stroke:#000000;stroke-width:0.74587913pt;marker-start:none"
         transform="scale(0.6)"
         id="path5185" />
    </marker>
    <marker
       style="overflow:visible"
       id="TriangleOutM"
       orient="auto"
       refY="0.0"
       inkscape:stockid="TriangleOutM"
       refX="0.0">
      <path
         d="M 5.77,0.0 L -2.88,5.0 L -2.88,-5.0 L 5.77,0.0 z "
         style="fill-rule:evenodd;stroke:#000000;stroke-width:1.0pt;marker-start:none"
         transform="scale(0.4)"
         id="path5251" />
    </marker>
    <marker
       style="overflow:visible"
       id="TriangleInS"
       orient="auto"
       refY="0.0"
       inkscape:stockid="TriangleInS"
       refX="0.0">
      <path
         d="M 5.77,0.0 L -2.88,5.0 L -2.88,-5.0 L 5.77,0.0 z "
         style="fill-rule:evenodd;stroke:#000000;stroke-width:1.0pt;marker-start:none"
         transform="scale(-0.2)"
         id="path5257" />
    </marker>
    <marker
       style="overflow:visible;"
       id="Arrow2Mend"
       orient="auto"
       refY="0.0"
       inkscape:stockid="Arrow2Mend"
       refX="0.0">
      <path
         d="M 8.7185878,4.0337352 L -2.2072895,0.016013256 L 8.7185884,-4.0017078 C 6.9730900,-1.6296469 6.9831476,1.6157441 8.7185878,4.0337352 z "
         style="font-size:12.0;fill-rule:evenodd;stroke-width:0.62500000;stroke-linejoin:round;"
         transform="scale(0.6) rotate(180) translate(0,0)"
         id="path5325" />
    </marker>
    <marker
       style="overflow:visible"
       id="TriangleOutS"
       orient="auto"
       refY="0.0"
       inkscape:stockid="TriangleOutS"
       refX="0.0">
      <path
         d="M 5.77,0.0 L -2.88,5.0 L -2.88,-5.0 L 5.77,0.0 z "
         style="fill-rule:evenodd;stroke:#000000;stroke-width:1.0pt;marker-start:none"
         transform="scale(0.2)"
         id="path5248" />
    </marker>
    <marker
       style="overflow:visible"
       id="TriangleOutL"
       orient="auto"
       refY="0.0"
       inkscape:stockid="TriangleOutL"
       refX="0.0">
      <path
         d="M 5.77,0.0 L -2.88,5.0 L -2.88,-5.0 L 5.77,0.0 z "
         style="fill-rule:evenodd;stroke:#000000;stroke-width:1.0pt;marker-start:none"
         transform="scale(0.8)"
         id="path5254" />
    </marker>
    <marker
       style="overflow:visible"
       id="TriangleOutSZ"
       orient="auto"
       refY="0.0"
       inkscape:stockid="TriangleOutSZ"
       refX="0.0">
      <path
         d="M 5.77,0.0 L -2.88,5.0 L -2.88,-5.0 L 5.77,0.0 z "
         style="marker-start:none;stroke:#0000fe;stroke-width:1.0pt;fill:#0000fe;fill-rule:evenodd"
         transform="scale(0.2)"
         id="path5394" />
    </marker>
  </defs>
  <metadata
     id="metadata2221">
    <rdf:RDF>
      <cc:Work
         rdf:about="">
        <dc:format>image/svg+xml</dc:format>
        <dc:type
           rdf:resource="http://purl.org/dc/dcmitype/StillImage" />
      </cc:Work>
    </rdf:RDF>
  </metadata>
  <g
     inkscape:label="Layer 1"
     id="layer1"
     inkscape:groupmode="layer">
    <rect
       style="fill:#000000;fill-opacity:0.62087911;stroke:none;stroke-opacity:0.49803922"
       id="rect2224"
       width="40"
       y="4"
       x="20"
       height="8" />
    <rect
       style="fill:#000000;fill-opacity:0.62087911;stroke:none;stroke-opacity:0.49803922"
       id="rect3199"
       width="40"
       y="46"
       x="20"
       height="8" />
    <rect
       style="fill:#000000;fill-opacity:1;stroke:none;stroke-opacity:0.49803922"
       id="rect4170"
       width="30"
       y="21"
       x="30"
       height="16" />
    <path
       style="stroke-linejoin:miter;marker-end:url(#TriangleOutSZ);stroke-opacity:1;fill-rule:evenodd;fill-opacity:1;stroke:#0000fe;stroke-linecap:round;stroke-miterlimit:4;stroke-dasharray:none;stroke-width:4;fill:none"
       d="M 24.904762,28.994709 C 10.84127,32.677248 1.4814819,48.047619 13.312169,50.079365"
       id="path5377"
       sodipodi:nodetypes="cc" />
  </g>
</svg>
